<?xml version="1.0" encoding="UTF-8" standalone="no"?>
<!-- Created with Inkscape (http://www.inkscape.org/) -->

<svg
   xmlns:dc="http://purl.org/dc/elements/1.1/"
   xmlns:cc="http://creativecommons.org/ns#"
   xmlns:rdf="http://www.w3.org/1999/02/22-rdf-syntax-ns#"
   xmlns:svg="http://www.w3.org/2000/svg"
   xmlns="http://www.w3.org/2000/svg"
   xmlns:xlink="http://www.w3.org/1999/xlink"
   xmlns:sodipodi="http://sodipodi.sourceforge.net/DTD/sodipodi-0.dtd"
   xmlns:inkscape="http://www.inkscape.org/namespaces/inkscape"
   width="1052.3622"
   height="744.09448"
   id="svg2"
   version="1.1"
   inkscape:version="0.48.4 r9939"
   sodipodi:docname="love-letter-to-Rita.svg">
  <defs
     id="defs4">
    <linearGradient
       inkscape:collect="always"
       id="linearGradient3923">
      <stop
         style="stop-color:#000000;stop-opacity:1;"
         offset="0"
         id="stop3925" />
      <stop
         style="stop-color:#000000;stop-opacity:0"
         offset="1"
         id="stop3927" />
    </linearGradient>
    <linearGradient
       inkscape:collect="always"
       xlink:href="#linearGradient3923"
       id="linearGradient3929"
       x1="618.61432"
       y1="820.16052"
       x2="606.09497"
       y2="822.20844"
       gradientUnits="userSpaceOnUse"
       gradientTransform="matrix(1,0,0,1.0677591,2.8396656,-54.285725)" />
    <linearGradient
       inkscape:collect="always"
       xlink:href="#linearGradient3923-6"
       id="linearGradient3929-7"
       x1="618.61432"
       y1="820.16052"
       x2="606.09497"
       y2="822.20844"
       gradientUnits="userSpaceOnUse"
       gradientTransform="matrix(1,0,0,1.0677591,0,-55.908391)" />
    <linearGradient
       inkscape:collect="always"
       id="linearGradient3923-6">
      <stop
         style="stop-color:#000000;stop-opacity:1;"
         offset="0"
         id="stop3925-0" />
      <stop
         style="stop-color:#000000;stop-opacity:0"
         offset="1"
         id="stop3927-1" />
    </linearGradient>
    <linearGradient
       inkscape:collect="always"
       xlink:href="#linearGradient3923-5"
       id="linearGradient3929-2"
       x1="618.61432"
       y1="820.16052"
       x2="606.09497"
       y2="822.20844"
       gradientUnits="userSpaceOnUse"
       gradientTransform="matrix(1,0,0,1.0677591,0,-55.908391)" />
    <linearGradient
       inkscape:collect="always"
       id="linearGradient3923-5">
      <stop
         style="stop-color:#000000;stop-opacity:1;"
         offset="0"
         id="stop3925-1" />
      <stop
         style="stop-color:#000000;stop-opacity:0"
         offset="1"
         id="stop3927-9" />
    </linearGradient>
  </defs>
  <sodipodi:namedview
     id="base"
     pagecolor="#ffffff"
     bordercolor="#666666"
     borderopacity="1.0"
     inkscape:pageopacity="0.0"
     inkscape:pageshadow="2"
     inkscape:zoom="1.1476306"
     inkscape:cx="663.74647"
     inkscape:cy="315.43281"
     inkscape:document-units="px"
     inkscape:current-layer="layer1"
     showgrid="false"
     inkscape:showpageshadow="false"
     inkscape:window-width="1050"
     inkscape:window-height="1652"
     inkscape:window-x="0"
     inkscape:window-y="2"
     inkscape:window-maximized="1" />
  <metadata
     id="metadata7">
    <rdf:RDF>
      <cc:Work
         rdf:about="">
        <dc:format>image/svg+xml</dc:format>
        <dc:type
           rdf:resource="http://purl.org/dc/dcmitype/StillImage" />
        <dc:title></dc:title>
      </cc:Work>
    </rdf:RDF>
  </metadata>
  <g
     inkscape:label="Layer 1"
     inkscape:groupmode="layer"
     id="layer1"
     transform="translate(0,-308.2677)">
    <path
       sodipodi:type="arc"
       style="fill:#000000;fill-opacity:1;fill-rule:nonzero;stroke:none"
       id="path3029-3"
       sodipodi:cx="422.58496"
       sodipodi:cy="157.37506"
       sodipodi:rx="5.5119772"
       sodipodi:ry="5.671092"
       d="m 428.09694,157.37506 a 5.5119772,5.671092 0 1 1 -11.02396,0 5.5119772,5.671092 0 1 1 11.02396,0 z"
       transform="matrix(-1.0555556,0,0,0.90058036,1064.6297,412.52912)" />
    <path
       sodipodi:type="arc"
       style="fill:#000000;fill-opacity:1;fill-rule:nonzero;stroke:none"
       id="path3029"
       sodipodi:cx="422.58496"
       sodipodi:cy="157.37506"
       sodipodi:rx="5.5119772"
       sodipodi:ry="6.7368617"
       d="m 428.09694,157.37506 a 5.5119772,6.7368617 0 1 1 -11.02396,0 5.5119772,6.7368617 0 1 1 11.02396,0 z"
       transform="matrix(1.0767499,0,0,0.88754494,207.10136,413.38481)" />
    <path
       style="fill:#ffffff;stroke:#000000;stroke-width:1px;stroke-linecap:butt;stroke-linejoin:miter;stroke-opacity:1"
       d="M 703.8125,150.25 612.5,169.5625 c -1,8.75 -5.90107,36.73696 -6.0625,55.3125 -0.087,10.01622 1.67745,13.02818 3.875,17.90625 -0.0181,-0.20372 -0.0312,-0.34375 -0.0312,-0.34375 1.94465,-0.24464 9.58135,-3.5545 15.5625,-0.6875 l 5.34375,7.65625 c 0,0 -4.8178,0.30531 -13.03125,0.40625 -2.96843,0.0365 -4.81921,-1.0386 -5.96875,-2.375 1.60154,4.49707 0.7968,10.43811 2.62724,21.72991 2.20744,13.61755 10.59033,26.53651 26.84375,59.78797 8.45546,17.29829 21.543,32.66897 47.83259,18.14956 63.68277,-35.17123 76.25447,-62.73218 76.25447,-62.73218 l 15.8482,-93.77901 z m -41.125,89.125 c 3.39268,-0.0743 8.30065,0.51459 15,2.875 0,0 0.74873,6.1577 -7,6.0625 -8.21345,-0.10094 -19.5625,0.0312 -19.5625,0.0312 l 5.34375,-7.6875 c 0,0 1.85673,-1.18574 6.21875,-1.28125 z"
       transform="translate(0,308.2677)"
       id="path2985"
       inkscape:connector-curvature="0"
       sodipodi:nodetypes="ccsccccscssscccccsccsc" />
    <path
       style="fill:#000000;stroke:#000000;stroke-width:1px;stroke-linecap:butt;stroke-linejoin:miter;stroke-opacity:1"
       d="m 617.8717,180.16303 c 11.05975,13.44466 42.0088,10.38491 64.0088,6.38491 -32,-16 -35.94025,-19.38491 -35.94025,-19.38491 0,0 54.94418,-12.29766 54.01911,14.39459 -1.20853,34.87131 19.32703,15.74447 25.71318,60.56836 23.9107,-46.47547 51.04718,-56.54198 32.11898,11.63118 -4.28881,15.44687 5.42483,18.33669 5.42483,43.33669 20.8805,0.0509 49.17645,-55.03428 45.28806,-75.82894 C 793.6968,142.07565 779.33712,147.74046 730.32769,120.13577 704.21273,105.42646 632,109.09448 616,137.09448 c -35.82178,62.68812 -3.19686,48.76101 -3.19686,48.76101 z"
       id="path2987"
       inkscape:connector-curvature="0"
       transform="translate(0,308.2677)"
       sodipodi:nodetypes="cccscscssscc" />
    <path
       style="fill:#000000;stroke:#000000;stroke-width:0.99999994px;stroke-linecap:butt;stroke-linejoin:miter;stroke-opacity:1"
       d="m 645.20724,536.01837 c 37.60714,-15.03594 36.81416,-12.49025 36.81416,-12.49025 l 15.55577,15.3238 c 0,0 -18.8755,-12.79983 -47.39342,2.72316 -4.72401,2.57139 -4.97651,-5.55671 -4.97651,-5.55671 z"
       id="path2989"
       inkscape:connector-curvature="0"
       sodipodi:nodetypes="cccsc" />
    <path
       style="fill:#000000;stroke:#000000;stroke-width:1px;stroke-linecap:butt;stroke-linejoin:miter;stroke-opacity:1"
       d="m 629.65505,534.99328 c -16.5975,-5.39522 -24.28666,-1.98942 -24.28666,-1.98942 l 1.46846,8.07273 c 0,0 2.36047,-4.41733 14.58213,-1.25417 8.08726,2.09312 8.23607,-4.82914 8.23607,-4.82914 z"
       id="path2989-3"
       inkscape:connector-curvature="0"
       sodipodi:nodetypes="cccsc" />
    <path
       style="fill:#ffffff;stroke:#000000;stroke-width:1px;stroke-linecap:butt;stroke-linejoin:miter;stroke-opacity:1"
       d="m 629.6669,534.62646 c -1.08042,17.28667 -3.42284,15.36725 -5.78022,30.89991 -1.60187,10.55464 -9.77778,29.17126 -5.88828,33.06076 7.779,7.779 7.77901,0.86434 15.12584,1.2965 7.34684,0.43217 14.37918,-2.52301 15.12583,-8.21117 0.4907,-3.73823 -4.99622,-7.14822 -8.21116,-7.779"
       id="path3009"
       inkscape:connector-curvature="0"
       sodipodi:nodetypes="cssssc" />
    <path
       style="fill:#ffffff;stroke:#000000;stroke-width:1px;stroke-linecap:butt;stroke-linejoin:miter;stroke-opacity:1"
       d="m 633.87605,622.6695 c 31.83107,2.41914 35.52163,0.0614 35.52163,0.0614 0,0 -8.76507,6.65163 -17.53016,8.43119 -8.76508,1.77954 -13.37828,6.16623 -17.99147,-8.49258 z"
       id="path3799-7"
       inkscape:connector-curvature="0" />
    <path
       style="fill:#ffffff;stroke:#000000;stroke-width:1px;stroke-linecap:butt;stroke-linejoin:miter;stroke-opacity:1"
       d="m 630.81384,623.99714 c 31.83107,-2.41914 35.52163,-0.0614 35.52163,-0.0614 0,0 -8.76507,-6.65163 -17.53016,-8.43119 -8.76508,-1.77954 -13.37828,-6.16623 -17.99147,8.49258 z"
       id="path3799"
       inkscape:connector-curvature="0" />
    <path
       style="fill:none;stroke:#000000;stroke-width:1px;stroke-linecap:butt;stroke-linejoin:miter;stroke-opacity:1"
       d="m 794.91956,277.57799 c 28.85036,11.66291 30.69187,17.18745 30.69187,17.18745 l -43.58246,25.16733 38.67176,11.66292 c 0,0 -71.81899,9.20756 -89.00644,60.15607 -17.18745,50.94851 -74.27433,81.02655 -74.27433,81.02655 0,0 42.35478,-111.10459 47.87932,-117.24296 5.52454,-6.13838 89.62028,-77.95736 89.62028,-77.95736 z"
       id="path3851"
       inkscape:connector-curvature="0"
       transform="translate(0,308.2677)" />
    <path
       style="fill:#ffffff;stroke:#000000;stroke-width:1px;stroke-linecap:butt;stroke-linejoin:miter;stroke-opacity:1"
       d="m 590.0408,732.30524 91.3125,19.3125 c 1,8.75 -1.98929,51.86014 -1.82786,70.43568 -19.38573,25.39403 -1.14639,3.97056 -6.51619,38.27659 -2.20744,13.61755 -4.56107,17.42915 -20.81449,50.68061 -8.45546,17.29829 -24.97081,22.64025 -50.46271,6.762 C 540.0993,879.38318 548.824,868.6933 544.74003,863.58833 L 512.2595,772.64899 z"
       id="path2985-5"
       inkscape:connector-curvature="0"
       sodipodi:nodetypes="ccccssccc" />
    <path
       style="fill:#000000;stroke:#000000;stroke-width:1px;stroke-linecap:butt;stroke-linejoin:miter;stroke-opacity:1"
       d="m 647.56771,796.24594 c -11.05975,13.44466 -17.02267,5.78221 -39.02267,1.78221 32,-16 -15.34707,0.34097 -15.34707,0.34097 0,0 8.77896,2.67765 -11.27968,20.31236 -22.46254,19.74813 -36.58852,-20.79921 -42.97467,24.02468 -9.44505,-9.65381 -10.98598,-8.40867 -9.81108,16.36753 0.75935,16.01322 -22.30678,0.8293 -22.30678,25.8293 -2.61006,0.006 -9.25458,18.17091 -25.19621,7.47218 -13.12988,-8.8117 -18.71802,15.29757 -21.48218,12.55657 -2.76415,-2.741 -30.47562,-15.85711 -21.90678,-0.37944 2.14983,3.88318 -58.36208,22.72746 -60.66158,18.63639 -2.2995,-4.09107 -35.96692,-20.83805 -37.80207,-25.08017 -1.83514,-4.24211 11.06621,-29.51338 9.85011,-33.55723 -1.21609,-4.04384 -87.56286,36.81081 -88.00523,33.31456 -0.44237,-3.49625 -57.00676,-32.93256 -1.94574,-65.12073 8.69369,-5.08225 -46.83959,-15.22066 -44.75709,-23.86583 2.0825,-8.64516 94.38981,-32.44903 96.81373,-39.85963 2.42391,-7.41061 26.08696,-15.52373 28.96216,-21.7187 2.87521,-6.19498 100.6878,-12.44441 104.12417,-17.44269 3.43636,-4.99828 40.71479,-10.718 44.82218,-14.53852 4.10739,-3.82052 33.5639,-5.0843 38.45219,-7.74599 4.88829,-2.66169 21.3725,-4.74869 27.15156,-6.27048 5.77906,-1.52179 12.03098,-2.47837 18.81068,-2.87919 29.92032,-1.76892 96.86294,12.94518 112.86294,40.94518 35.82178,62.68812 -13.24138,72.43208 -13.24138,72.43208 z"
       id="path2987-6"
       inkscape:connector-curvature="0"
       sodipodi:nodetypes="cccscscssssssssssssssssscc" />
    <path
       style="fill:url(#linearGradient3929);fill-opacity:1;stroke:none"
       d="m 615.17939,820.62139 c 27.4919,-1.06064 39.50123,1.16848 39.50123,1.16848 l -5.05666,4.93791 c 0,0 -20.37074,-1.84528 -40.44502,-1.69879 -13.28345,0.0969 6.00045,-4.4076 6.00045,-4.4076 z"
       id="path2989-3-2"
       inkscape:connector-curvature="0"
       sodipodi:nodetypes="cccsc" />
    <path
       style="fill:#000000;fill-opacity:1;stroke:none"
       d="m 630.09743,837.87288 c 16.99604,-0.26739 15.63157,3.73444 15.63157,3.73444 l -0.54795,-4.91858 c 0,0 -9.86643,-3.90511 -23.24152,-1.38858 -8.10196,1.5244 8.1579,2.57272 8.1579,2.57272 z"
       id="path2989-3-2-0"
       inkscape:connector-curvature="0"
       sodipodi:nodetypes="cccsc" />
    <path
       style="fill:#ffffff;stroke:#000000;stroke-width:1px;stroke-linecap:butt;stroke-linejoin:miter;stroke-opacity:1"
       d="m 665.00138,825.83171 c -3.29644,32.99181 11.57644,47.40127 6.07416,52.28134 -6.15633,4.93933 -7.37334,2.89267 -17.55984,1.2965 -7.27082,-1.1393 -13.56784,-5.76834 -8.22949,-9.83384"
       id="path3009-1"
       inkscape:connector-curvature="0"
       sodipodi:nodetypes="ccsc" />
  </g>
</svg>
